<?xml version="1.0" encoding="UTF-8" standalone="no"?>
<svg width="49px" height="35px" viewBox="0 0 49 35" version="1.1" xmlns="http://www.w3.org/2000/svg" xmlns:xlink="http://www.w3.org/1999/xlink">
    <!-- Generator: Sketch 39.1 (31720) - http://www.bohemiancoding.com/sketch -->
    <title>Shape</title>
    <desc>Created with Sketch.</desc>
    <defs></defs>
    <g id="Page-1" stroke="none" stroke-width="1" fill="none" fill-rule="evenodd">
        <g id="1472462827_menu-alt" fill="#000000">
            <path d="M3.5,7 L45.5,7 C47.432,7 49,5.432 49,3.5 C49,1.568 47.432,0 45.5,0 L3.5,0 C1.568,0 0,1.568 0,3.5 C0,5.432 1.568,7 3.5,7 L3.5,7 Z M45.5,14 L3.5,14 C1.568,14 0,15.568 0,17.5 C0,19.432 1.568,21 3.5,21 L45.5,21 C47.432,21 49,19.432 49,17.5 C49,15.568 47.432,14 45.5,14 L45.5,14 Z M45.5,28 L3.5,28 C1.568,28 0,29.568 0,31.5 C0,33.432 1.568,35 3.5,35 L45.5,35 C47.432,35 49,33.432 49,31.5 C49,29.568 47.432,28 45.5,28 L45.5,28 Z" id="Shape"></path>
        </g>
    </g>
</svg>